<?xml version="1.0" standalone="no"?>
<!DOCTYPE svg PUBLIC "-//W3C//DTD SVG 20010904//EN"
 "http://www.w3.org/TR/2001/REC-SVG-20010904/DTD/svg10.dtd">
<svg version="1.0" xmlns="http://www.w3.org/2000/svg"
 width="512.000000pt" height="512.000000pt" viewBox="0 0 512.000000 512.000000"
 preserveAspectRatio="xMidYMid meet">
<metadata>
Created by potrace 1.11, written by Peter Selinger 2001-2013
</metadata>
<g transform="translate(0.000000,512.000000) scale(0.100000,-0.100000)"
fill="#000000" stroke="none">
<path d="M980 4395 c-18 -22 -19 -410 -1 -428 8 -8 67 -12 197 -13 250 -1 232
-19 229 218 -2 217 -1 203 -21 222 -23 23 -385 24 -404 1z"/>
<path d="M3728 4392 c-16 -9 -28 -26 -29 -37 0 -11 -1 -98 -1 -194 0 -227 -18
-210 233 -211 171 0 187 2 203 19 15 17 18 44 19 215 0 146 -3 199 -12 210
-21 25 -374 23 -413 -2z"/>
<path d="M1437 3929 c-12 -16 -15 -61 -15 -211 0 -173 -1 -193 -18 -205 -13
-10 -67 -13 -215 -13 -165 0 -199 -2 -209 -15 -10 -12 -13 -66 -13 -210 1
-143 -2 -198 -12 -212 -11 -15 -34 -17 -221 -18 -183 -1 -212 -3 -236 -19 -15
-10 -31 -28 -35 -39 -4 -12 -8 -98 -9 -192 -1 -93 -2 -178 -3 -187 -1 -17 -17
-18 -192 -18 l-191 0 -34 -34 -34 -34 0 -645 0 -646 22 -26 c13 -14 37 -29 53
-33 48 -13 354 -7 368 7 8 8 12 126 12 447 l0 435 28 7 c16 4 128 7 248 7 170
0 222 -3 228 -13 4 -8 8 -202 8 -433 0 -315 3 -423 12 -432 8 -8 71 -13 205
-15 258 -4 237 -24 238 228 1 130 5 197 12 202 6 4 516 8 1132 8 1031 0 1123
-1 1135 -17 11 -12 14 -60 15 -200 1 -100 2 -190 3 -198 2 -32 51 -41 234 -40
189 1 196 3 197 50 1 11 2 203 2 427 1 224 5 413 9 420 11 18 463 20 487 2 15
-11 17 -53 17 -443 0 -324 3 -433 13 -443 14 -14 332 -19 375 -5 15 5 36 20
47 34 20 25 20 41 20 662 0 350 -3 645 -6 656 -3 11 -20 30 -38 43 -31 21 -42
22 -238 22 -155 0 -208 3 -216 13 -7 8 -12 89 -13 214 -1 110 -5 207 -9 214
-6 9 -57 13 -202 14 -216 2 -207 2 -228 15 -12 8 -15 43 -16 210 -1 143 -5
204 -14 215 -10 12 -47 15 -210 15 -182 0 -198 1 -214 19 -16 18 -18 42 -18
203 0 141 -3 188 -14 206 -14 22 -18 22 -207 22 -151 0 -197 -3 -213 -14 -18
-13 -19 -29 -20 -210 -2 -139 -6 -201 -14 -211 -11 -13 -103 -15 -676 -15
l-664 0 -6 27 c-4 14 -7 103 -7 197 0 163 -5 201 -31 218 -6 4 -97 8 -203 8
-183 0 -193 -1 -206 -21z m396 -894 c37 -16 44 -52 44 -238 0 -141 -3 -181
-14 -193 -12 -11 -56 -14 -224 -14 -208 0 -209 0 -213 23 -10 41 -1 406 9 416
6 5 21 11 35 13 47 6 345 0 363 -7z m1830 6 c29 -2 35 -48 33 -247 l-1 -199
-210 -2 c-122 -2 -216 1 -225 7 -12 8 -15 42 -16 192 -2 204 5 232 56 245 23
6 293 9 363 4z"/>
<path d="M1423 1161 c-17 -18 -18 -39 -18 -217 1 -193 2 -197 24 -215 22 -18
48 -19 437 -19 l413 0 26 23 27 23 0 194 c0 184 -1 195 -21 211 -18 15 -65 17
-445 18 -411 1 -425 1 -443 -18z"/>
<path d="M3659 1175 c-3 -2 -192 -5 -422 -6 -305 -1 -421 -5 -433 -13 -14 -11
-16 -38 -16 -207 l1 -194 26 -22 26 -23 414 0 c403 0 414 1 428 20 11 15 14
64 15 208 1 103 -1 199 -4 215 -5 24 -22 35 -35 22z"/>
</g>
</svg>
